M48
METRIC,TZ
T1C0.400
T2C0.800
T3C1.000
%
G90
G05
T1
X123342Y-77775
X129355Y-78375
X129438Y-81839
X130404Y-74981
X131267Y-78296
X131572Y-81890
X131826Y-71460
X131943Y-74257
X133934Y-71222
X134722Y-77902
X136030Y-73939
X136677Y-73177
X137897Y-76378
T2
X121768Y-76454
X121768Y-78994
T3
X121717Y-71526
X121717Y-74066
X121818Y-81331
X124257Y-71526
X124257Y-74066
X126797Y-71526
X126797Y-74066
X142443Y-76505
X142443Y-79045
X142443Y-81585
X143129Y-71603
T0
M30
