G04 #@! TF.GenerationSoftware,KiCad,Pcbnew,10.0.5*
G04 #@! TF.CreationDate,2026-08-15T14:53:27+01:00*
G04 #@! TF.ProjectId,attiny85_ws2812_touch,61747469-6e79-4383-955f-777332383132,rev?*
G04 #@! TF.SameCoordinates,Original*
G04 #@! TF.FileFunction,Copper,L1,Top*
G04 #@! TF.FilePolarity,Positive*
%FSLAX46Y46*%
G04 Gerber Fmt 4.6, Leading zero omitted, Abs format (unit mm)*
G04 Created by KiCad (PCBNEW 10.0.5) date 2026-08-15 14:53:27*
%MOMM*%
%LPD*%
G01*
G04 APERTURE LIST*
G04 Aperture macros list*
%AMRoundRect*
0 Rectangle with rounded corners*
0 $1 Rounding radius*
0 $2 $3 $4 $5 $6 $7 $8 $9 X,Y pos of 4 corners*
0 Add a 4 corners polygon primitive as box body*
4,1,4,$2,$3,$4,$5,$6,$7,$8,$9,$2,$3,0*
0 Add four circle primitives for the rounded corners*
1,1,$1+$1,$2,$3*
1,1,$1+$1,$4,$5*
1,1,$1+$1,$6,$7*
1,1,$1+$1,$8,$9*
0 Add four rect primitives between the rounded corners*
20,1,$1+$1,$2,$3,$4,$5,0*
20,1,$1+$1,$4,$5,$6,$7,0*
20,1,$1+$1,$6,$7,$8,$9,0*
20,1,$1+$1,$8,$9,$2,$3,0*%
G04 Aperture macros list end*
G04 #@! TA.AperFunction,SMDPad,CuDef*
%ADD10R,0.650000X1.700000*%
G04 #@! TD*
G04 #@! TA.AperFunction,ComponentPad*
%ADD11O,1.000000X1.600000*%
G04 #@! TD*
G04 #@! TA.AperFunction,ComponentPad*
%ADD12O,3.000000X1.200000*%
G04 #@! TD*
G04 #@! TA.AperFunction,ComponentPad*
%ADD13C,1.500000*%
G04 #@! TD*
G04 #@! TA.AperFunction,SMDPad,CuDef*
%ADD14RoundRect,0.237500X-0.300000X-0.237500X0.300000X-0.237500X0.300000X0.237500X-0.300000X0.237500X0*%
G04 #@! TD*
G04 #@! TA.AperFunction,ComponentPad*
%ADD15C,1.600000*%
G04 #@! TD*
G04 #@! TA.AperFunction,SMDPad,CuDef*
%ADD16R,0.650000X1.560000*%
G04 #@! TD*
G04 #@! TA.AperFunction,ViaPad*
%ADD17C,0.800000*%
G04 #@! TD*
G04 #@! TA.AperFunction,Conductor*
%ADD18C,0.250000*%
G04 #@! TD*
G04 APERTURE END LIST*
D10*
X133934200Y-72956400D03*
X132664200Y-72956400D03*
X131394200Y-72956400D03*
X130124200Y-72956400D03*
X130124200Y-80256400D03*
X131394200Y-80256400D03*
X132664200Y-80256400D03*
X133934200Y-80256400D03*
D11*
X124485400Y-81407000D03*
X124485400Y-78867000D03*
D12*
X142443200Y-81584800D03*
X142443200Y-76504800D03*
X142443200Y-79044800D03*
D13*
X143129000Y-71602600D03*
D14*
X135587400Y-71551800D03*
X137312400Y-71551800D03*
D15*
X124688600Y-71551800D03*
X127228600Y-71551800D03*
X124688600Y-74091800D03*
X127228600Y-74091800D03*
X124688600Y-76631800D03*
X127228600Y-76631800D03*
D16*
X136194800Y-81109800D03*
X137144800Y-81109800D03*
X138094800Y-81109800D03*
X138094800Y-78409800D03*
X137144800Y-78409800D03*
X136194800Y-78409800D03*
D17*
X136030074Y-73938960D03*
X130403600Y-74980800D03*
X131943466Y-74256729D03*
X127922800Y-80738200D03*
X134061200Y-75133200D03*
X134721600Y-77901800D03*
X131826000Y-71459900D03*
X137896600Y-76377800D03*
D18*
X137444800Y-82214800D02*
X138765200Y-82214800D01*
X134493000Y-76225400D02*
X136030074Y-74688326D01*
X140385800Y-80594200D02*
X140385800Y-78308200D01*
X130403600Y-74980800D02*
X130403600Y-73235800D01*
X130403600Y-73235800D02*
X130124200Y-72956400D01*
X130403600Y-74980800D02*
X131648200Y-76225400D01*
X138765200Y-82214800D02*
X140385800Y-80594200D01*
X137144800Y-81109800D02*
X137144800Y-81914800D01*
X140385800Y-78308200D02*
X142189200Y-76504800D01*
X142189200Y-76504800D02*
X142443200Y-76504800D01*
X136030074Y-74688326D02*
X136030074Y-73938960D01*
X135587400Y-73496286D02*
X136030074Y-73938960D01*
X135587400Y-71551800D02*
X135587400Y-73496286D01*
X131648200Y-76225400D02*
X134493000Y-76225400D01*
X137144800Y-81914800D02*
X137444800Y-82214800D01*
X131394200Y-72956400D02*
X131394200Y-73707463D01*
X131394200Y-73707463D02*
X131943466Y-74256729D01*
X128904543Y-76174143D02*
X131394200Y-78663800D01*
X125813600Y-72676800D02*
X127404591Y-72676800D01*
X131267200Y-80129400D02*
X131394200Y-80256400D01*
X131394200Y-78663800D02*
X131394200Y-80256400D01*
X127404591Y-72676800D02*
X128904543Y-74176751D01*
X128904543Y-74176751D02*
X128904543Y-76174143D01*
X124688600Y-71551800D02*
X125813600Y-72676800D01*
X129557800Y-80256400D02*
X130124200Y-80256400D01*
X128353600Y-79052200D02*
X129557800Y-80256400D01*
X128353600Y-75216800D02*
X128353600Y-79052200D01*
X127228600Y-74091800D02*
X128353600Y-75216800D01*
X134061200Y-75133200D02*
X134061200Y-73083400D01*
X134061200Y-73083400D02*
X133934200Y-72956400D01*
X124688600Y-76631800D02*
X124688600Y-77504000D01*
X124688600Y-77504000D02*
X127922800Y-80738200D01*
X132664200Y-72298100D02*
X131826000Y-71459900D01*
X132664200Y-72956400D02*
X132664200Y-72298100D01*
X136194800Y-81109800D02*
X134721600Y-79636600D01*
X134721600Y-79636600D02*
X134721600Y-77901800D01*
X137144800Y-78409800D02*
X137144800Y-77604800D01*
X136451200Y-76911200D02*
X136271000Y-76911200D01*
X133934200Y-78867000D02*
X133934200Y-80256400D01*
X129354543Y-73677743D02*
X129354543Y-75227143D01*
X131699000Y-77571600D02*
X132969000Y-77571600D01*
X134543800Y-76911200D02*
X133629400Y-76911200D01*
X133629400Y-76911200D02*
X132969000Y-77571600D01*
X137144800Y-77604800D02*
X136451200Y-76911200D01*
X133908800Y-78333600D02*
X133908800Y-78841600D01*
X129354543Y-75227143D02*
X131699000Y-77571600D01*
X127228600Y-71551800D02*
X129354543Y-73677743D01*
X132969000Y-77571600D02*
X133146800Y-77571600D01*
X136804400Y-76377800D02*
X136271000Y-76911200D01*
X133146800Y-77571600D02*
X133908800Y-78333600D01*
X137896600Y-76377800D02*
X136804400Y-76377800D01*
X136271000Y-76911200D02*
X134543800Y-76911200D01*
X133908800Y-78841600D02*
X133934200Y-78867000D01*
X126103600Y-75506800D02*
X126103600Y-77894400D01*
X126103600Y-77894400D02*
X129997200Y-81788000D01*
X131724400Y-81788000D02*
X132130800Y-81381600D01*
X124688600Y-74091800D02*
X126103600Y-75506800D01*
X132130800Y-80789800D02*
X132664200Y-80256400D01*
X129997200Y-81788000D02*
X131724400Y-81788000D01*
X132130800Y-81381600D02*
X132130800Y-80789800D01*
X139293600Y-73533000D02*
X139293600Y-73609200D01*
X139293600Y-79911000D02*
X138094800Y-81109800D01*
X137312400Y-71551800D02*
X139293600Y-73533000D01*
X141224000Y-71602600D02*
X139293600Y-73533000D01*
X139293600Y-73609200D02*
X139293600Y-79911000D01*
X143129000Y-71602600D02*
X141224000Y-71602600D01*
M02*
