G04 #@! TF.GenerationSoftware,KiCad,Pcbnew,10.0.5*
G04 #@! TF.CreationDate,2026-08-15T14:53:27+01:00*
G04 #@! TF.ProjectId,attiny85_ws2812_touch,61747469-6e79-4383-955f-777332383132,rev?*
G04 #@! TF.SameCoordinates,Original*
G04 #@! TF.FileFunction,Legend,Top*
G04 #@! TF.FilePolarity,Positive*
%FSLAX46Y46*%
G04 Gerber Fmt 4.6, Leading zero omitted, Abs format (unit mm)*
G04 Created by KiCad (PCBNEW 10.0.5) date 2026-08-15 14:53:27*
%MOMM*%
%LPD*%
G01*
G04 APERTURE LIST*
%ADD10C,0.150000*%
%ADD11C,0.120000*%
G04 APERTURE END LIST*
D10*
X125981666Y-79298751D02*
X125981666Y-78536847D01*
X126362619Y-78917799D02*
X125600714Y-78917799D01*
X125981666Y-81787951D02*
X125981666Y-81026047D01*
X139761238Y-76242895D02*
X139713619Y-76338133D01*
X139713619Y-76338133D02*
X139713619Y-76480990D01*
X139713619Y-76480990D02*
X139761238Y-76623847D01*
X139761238Y-76623847D02*
X139856476Y-76719085D01*
X139856476Y-76719085D02*
X139951714Y-76766704D01*
X139951714Y-76766704D02*
X140142190Y-76814323D01*
X140142190Y-76814323D02*
X140285047Y-76814323D01*
X140285047Y-76814323D02*
X140475523Y-76766704D01*
X140475523Y-76766704D02*
X140570761Y-76719085D01*
X140570761Y-76719085D02*
X140666000Y-76623847D01*
X140666000Y-76623847D02*
X140713619Y-76480990D01*
X140713619Y-76480990D02*
X140713619Y-76385752D01*
X140713619Y-76385752D02*
X140666000Y-76242895D01*
X140666000Y-76242895D02*
X140618380Y-76195276D01*
X140618380Y-76195276D02*
X140285047Y-76195276D01*
X140285047Y-76195276D02*
X140285047Y-76385752D01*
X139764419Y-81968932D02*
X140764419Y-81635599D01*
X140764419Y-81635599D02*
X139764419Y-81302266D01*
X140713619Y-79544799D02*
X139713619Y-79544799D01*
X139713619Y-79544799D02*
X139713619Y-79306704D01*
X139713619Y-79306704D02*
X139761238Y-79163847D01*
X139761238Y-79163847D02*
X139856476Y-79068609D01*
X139856476Y-79068609D02*
X139951714Y-79020990D01*
X139951714Y-79020990D02*
X140142190Y-78973371D01*
X140142190Y-78973371D02*
X140285047Y-78973371D01*
X140285047Y-78973371D02*
X140475523Y-79020990D01*
X140475523Y-79020990D02*
X140570761Y-79068609D01*
X140570761Y-79068609D02*
X140666000Y-79163847D01*
X140666000Y-79163847D02*
X140713619Y-79306704D01*
X140713619Y-79306704D02*
X140713619Y-79544799D01*
X140713619Y-78544799D02*
X139713619Y-78544799D01*
X136282133Y-73460780D02*
X136234514Y-73508400D01*
X136234514Y-73508400D02*
X136091657Y-73556019D01*
X136091657Y-73556019D02*
X135996419Y-73556019D01*
X135996419Y-73556019D02*
X135853562Y-73508400D01*
X135853562Y-73508400D02*
X135758324Y-73413161D01*
X135758324Y-73413161D02*
X135710705Y-73317923D01*
X135710705Y-73317923D02*
X135663086Y-73127447D01*
X135663086Y-73127447D02*
X135663086Y-72984590D01*
X135663086Y-72984590D02*
X135710705Y-72794114D01*
X135710705Y-72794114D02*
X135758324Y-72698876D01*
X135758324Y-72698876D02*
X135853562Y-72603638D01*
X135853562Y-72603638D02*
X135996419Y-72556019D01*
X135996419Y-72556019D02*
X136091657Y-72556019D01*
X136091657Y-72556019D02*
X136234514Y-72603638D01*
X136234514Y-72603638D02*
X136282133Y-72651257D01*
X136663086Y-72651257D02*
X136710705Y-72603638D01*
X136710705Y-72603638D02*
X136805943Y-72556019D01*
X136805943Y-72556019D02*
X137044038Y-72556019D01*
X137044038Y-72556019D02*
X137139276Y-72603638D01*
X137139276Y-72603638D02*
X137186895Y-72651257D01*
X137186895Y-72651257D02*
X137234514Y-72746495D01*
X137234514Y-72746495D02*
X137234514Y-72841733D01*
X137234514Y-72841733D02*
X137186895Y-72984590D01*
X137186895Y-72984590D02*
X136615467Y-73556019D01*
X136615467Y-73556019D02*
X137234514Y-73556019D01*
X134784200Y-73856400D02*
X134579200Y-73856400D01*
X134784200Y-73856400D02*
X134784200Y-79356400D01*
X134579200Y-73856400D02*
X134579200Y-72106400D01*
X129274200Y-73856400D02*
X129574200Y-73856400D01*
X129274200Y-73856400D02*
X129274200Y-79356400D01*
X134784200Y-79356400D02*
X134484200Y-79356400D01*
X129274200Y-79356400D02*
X129574200Y-79356400D01*
D11*
X136303633Y-71041800D02*
X136596167Y-71041800D01*
X136303633Y-72061800D02*
X136596167Y-72061800D01*
D10*
X128244600Y-77647800D02*
X123672600Y-77647800D01*
X123672600Y-77520800D02*
X123672600Y-70535800D01*
X123672600Y-74726800D02*
X123037600Y-74726800D01*
X123037600Y-73329800D02*
X123037600Y-74726800D01*
X123037600Y-73329800D02*
X123672600Y-73329800D01*
X123672600Y-70535800D02*
X128244600Y-70535800D01*
X128244600Y-70535800D02*
X128244600Y-77647800D01*
D11*
X138754800Y-80659800D02*
X138754800Y-78859800D01*
X135534800Y-78859800D02*
X135534800Y-81809800D01*
M02*
