G04 #@! TF.GenerationSoftware,KiCad,Pcbnew,7.0.3*
G04 #@! TF.CreationDate,2023-07-10T18:08:12+01:00*
G04 #@! TF.ProjectId,attiny85_ws2812_touch,61747469-6e79-4383-955f-777332383132,rev?*
G04 #@! TF.SameCoordinates,Original*
G04 #@! TF.FileFunction,Legend,Top*
G04 #@! TF.FilePolarity,Positive*
%FSLAX46Y46*%
G04 Gerber Fmt 4.6, Leading zero omitted, Abs format (unit mm)*
G04 Created by KiCad (PCBNEW 7.0.3) date 2023-07-10 18:08:12*
%MOMM*%
%LPD*%
G01*
G04 APERTURE LIST*
%ADD10C,0.150000*%
%ADD11C,0.120000*%
G04 APERTURE END LIST*
D10*
X123263866Y-76787067D02*
X123263866Y-76025163D01*
X123644819Y-76406115D02*
X122882914Y-76406115D01*
X123263866Y-79276267D02*
X123263866Y-78514363D01*
X139761238Y-76144211D02*
X139713619Y-76239449D01*
X139713619Y-76239449D02*
X139713619Y-76382306D01*
X139713619Y-76382306D02*
X139761238Y-76525163D01*
X139761238Y-76525163D02*
X139856476Y-76620401D01*
X139856476Y-76620401D02*
X139951714Y-76668020D01*
X139951714Y-76668020D02*
X140142190Y-76715639D01*
X140142190Y-76715639D02*
X140285047Y-76715639D01*
X140285047Y-76715639D02*
X140475523Y-76668020D01*
X140475523Y-76668020D02*
X140570761Y-76620401D01*
X140570761Y-76620401D02*
X140666000Y-76525163D01*
X140666000Y-76525163D02*
X140713619Y-76382306D01*
X140713619Y-76382306D02*
X140713619Y-76287068D01*
X140713619Y-76287068D02*
X140666000Y-76144211D01*
X140666000Y-76144211D02*
X140618380Y-76096592D01*
X140618380Y-76096592D02*
X140285047Y-76096592D01*
X140285047Y-76096592D02*
X140285047Y-76287068D01*
X139764419Y-81870248D02*
X140764419Y-81536915D01*
X140764419Y-81536915D02*
X139764419Y-81203582D01*
X140713619Y-79446115D02*
X139713619Y-79446115D01*
X139713619Y-79446115D02*
X139713619Y-79208020D01*
X139713619Y-79208020D02*
X139761238Y-79065163D01*
X139761238Y-79065163D02*
X139856476Y-78969925D01*
X139856476Y-78969925D02*
X139951714Y-78922306D01*
X139951714Y-78922306D02*
X140142190Y-78874687D01*
X140142190Y-78874687D02*
X140285047Y-78874687D01*
X140285047Y-78874687D02*
X140475523Y-78922306D01*
X140475523Y-78922306D02*
X140570761Y-78969925D01*
X140570761Y-78969925D02*
X140666000Y-79065163D01*
X140666000Y-79065163D02*
X140713619Y-79208020D01*
X140713619Y-79208020D02*
X140713619Y-79446115D01*
X140713619Y-78446115D02*
X139713619Y-78446115D01*
X136380817Y-73460780D02*
X136333198Y-73508400D01*
X136333198Y-73508400D02*
X136190341Y-73556019D01*
X136190341Y-73556019D02*
X136095103Y-73556019D01*
X136095103Y-73556019D02*
X135952246Y-73508400D01*
X135952246Y-73508400D02*
X135857008Y-73413161D01*
X135857008Y-73413161D02*
X135809389Y-73317923D01*
X135809389Y-73317923D02*
X135761770Y-73127447D01*
X135761770Y-73127447D02*
X135761770Y-72984590D01*
X135761770Y-72984590D02*
X135809389Y-72794114D01*
X135809389Y-72794114D02*
X135857008Y-72698876D01*
X135857008Y-72698876D02*
X135952246Y-72603638D01*
X135952246Y-72603638D02*
X136095103Y-72556019D01*
X136095103Y-72556019D02*
X136190341Y-72556019D01*
X136190341Y-72556019D02*
X136333198Y-72603638D01*
X136333198Y-72603638D02*
X136380817Y-72651257D01*
X136761770Y-72651257D02*
X136809389Y-72603638D01*
X136809389Y-72603638D02*
X136904627Y-72556019D01*
X136904627Y-72556019D02*
X137142722Y-72556019D01*
X137142722Y-72556019D02*
X137237960Y-72603638D01*
X137237960Y-72603638D02*
X137285579Y-72651257D01*
X137285579Y-72651257D02*
X137333198Y-72746495D01*
X137333198Y-72746495D02*
X137333198Y-72841733D01*
X137333198Y-72841733D02*
X137285579Y-72984590D01*
X137285579Y-72984590D02*
X136714151Y-73556019D01*
X136714151Y-73556019D02*
X137333198Y-73556019D01*
X123782417Y-81664980D02*
X123734798Y-81712600D01*
X123734798Y-81712600D02*
X123591941Y-81760219D01*
X123591941Y-81760219D02*
X123496703Y-81760219D01*
X123496703Y-81760219D02*
X123353846Y-81712600D01*
X123353846Y-81712600D02*
X123258608Y-81617361D01*
X123258608Y-81617361D02*
X123210989Y-81522123D01*
X123210989Y-81522123D02*
X123163370Y-81331647D01*
X123163370Y-81331647D02*
X123163370Y-81188790D01*
X123163370Y-81188790D02*
X123210989Y-80998314D01*
X123210989Y-80998314D02*
X123258608Y-80903076D01*
X123258608Y-80903076D02*
X123353846Y-80807838D01*
X123353846Y-80807838D02*
X123496703Y-80760219D01*
X123496703Y-80760219D02*
X123591941Y-80760219D01*
X123591941Y-80760219D02*
X123734798Y-80807838D01*
X123734798Y-80807838D02*
X123782417Y-80855457D01*
X124734798Y-81760219D02*
X124163370Y-81760219D01*
X124449084Y-81760219D02*
X124449084Y-80760219D01*
X124449084Y-80760219D02*
X124353846Y-80903076D01*
X124353846Y-80903076D02*
X124258608Y-80998314D01*
X124258608Y-80998314D02*
X124163370Y-81045933D01*
X133699619Y-80423020D02*
X134509142Y-80423020D01*
X134509142Y-80423020D02*
X134604380Y-80375401D01*
X134604380Y-80375401D02*
X134652000Y-80327782D01*
X134652000Y-80327782D02*
X134699619Y-80232544D01*
X134699619Y-80232544D02*
X134699619Y-80042068D01*
X134699619Y-80042068D02*
X134652000Y-79946830D01*
X134652000Y-79946830D02*
X134604380Y-79899211D01*
X134604380Y-79899211D02*
X134509142Y-79851592D01*
X134509142Y-79851592D02*
X133699619Y-79851592D01*
X134032952Y-78946830D02*
X134699619Y-78946830D01*
X133652000Y-79184925D02*
X134366285Y-79423020D01*
X134366285Y-79423020D02*
X134366285Y-78803973D01*
X134784200Y-73856400D02*
X134579200Y-73856400D01*
X134784200Y-73856400D02*
X134784200Y-79356400D01*
X134579200Y-73856400D02*
X134579200Y-72106400D01*
X129274200Y-73856400D02*
X129574200Y-73856400D01*
X129274200Y-73856400D02*
X129274200Y-79356400D01*
X134784200Y-79356400D02*
X134484200Y-79356400D01*
X129274200Y-79356400D02*
X129574200Y-79356400D01*
D11*
X128015600Y-78899600D02*
X128015600Y-77099600D01*
X124795600Y-77099600D02*
X124795600Y-80049600D01*
X136303633Y-71041800D02*
X136596167Y-71041800D01*
X136303633Y-72061800D02*
X136596167Y-72061800D01*
D10*
X120700800Y-75082400D02*
X120700800Y-70510400D01*
X120827800Y-70510400D02*
X127812800Y-70510400D01*
X123621800Y-70510400D02*
X123621800Y-69875400D01*
X125018800Y-69875400D02*
X123621800Y-69875400D01*
X125018800Y-69875400D02*
X125018800Y-70510400D01*
X127812800Y-70510400D02*
X127812800Y-75082400D01*
X127812800Y-75082400D02*
X120700800Y-75082400D01*
D11*
X126689067Y-81739200D02*
X126396533Y-81739200D01*
X126689067Y-80719200D02*
X126396533Y-80719200D01*
X138754800Y-80659800D02*
X138754800Y-78859800D01*
X135534800Y-78859800D02*
X135534800Y-81809800D01*
M02*
