G04 #@! TF.GenerationSoftware,KiCad,Pcbnew,10.0.5*
G04 #@! TF.CreationDate,2026-08-15T14:53:27+01:00*
G04 #@! TF.ProjectId,attiny85_ws2812_touch,61747469-6e79-4383-955f-777332383132,rev?*
G04 #@! TF.SameCoordinates,Original*
G04 #@! TF.FileFunction,Soldermask,Bot*
G04 #@! TF.FilePolarity,Negative*
%FSLAX46Y46*%
G04 Gerber Fmt 4.6, Leading zero omitted, Abs format (unit mm)*
G04 Created by KiCad (PCBNEW 10.0.5) date 2026-08-15 14:53:27*
%MOMM*%
%LPD*%
G01*
G04 APERTURE LIST*
G04 APERTURE END LIST*
G36*
X124546684Y-80560714D02*
G01*
X124557320Y-80560714D01*
X124587966Y-80568925D01*
X124645170Y-80580304D01*
X124672169Y-80591487D01*
X124696259Y-80597942D01*
X124717854Y-80610410D01*
X124744853Y-80621593D01*
X124793340Y-80653992D01*
X124820828Y-80669862D01*
X124828353Y-80677387D01*
X124834565Y-80681538D01*
X124910861Y-80757834D01*
X124915011Y-80764045D01*
X124922538Y-80771572D01*
X124938409Y-80799062D01*
X124970806Y-80847546D01*
X124981987Y-80874542D01*
X124994458Y-80896141D01*
X125000913Y-80920234D01*
X125012095Y-80947229D01*
X125023471Y-81004424D01*
X125031686Y-81035080D01*
X125032726Y-81050947D01*
X125033748Y-81056085D01*
X125035799Y-81097840D01*
X125036400Y-81107000D01*
X125036400Y-81707000D01*
X125035799Y-81716162D01*
X125033748Y-81757914D01*
X125032726Y-81763051D01*
X125031686Y-81778920D01*
X125023471Y-81809578D01*
X125012095Y-81866770D01*
X125000914Y-81893763D01*
X124994458Y-81917859D01*
X124981986Y-81939460D01*
X124970806Y-81966453D01*
X124938414Y-82014929D01*
X124922538Y-82042428D01*
X124915009Y-82049956D01*
X124910861Y-82056165D01*
X124834565Y-82132461D01*
X124828356Y-82136609D01*
X124820828Y-82144138D01*
X124793329Y-82160014D01*
X124744853Y-82192406D01*
X124717860Y-82203586D01*
X124696259Y-82216058D01*
X124672163Y-82222514D01*
X124645170Y-82233695D01*
X124587973Y-82245072D01*
X124557320Y-82253286D01*
X124546684Y-82253286D01*
X124539349Y-82254745D01*
X124431451Y-82254745D01*
X124424116Y-82253286D01*
X124413480Y-82253286D01*
X124382828Y-82245072D01*
X124325629Y-82233695D01*
X124298634Y-82222513D01*
X124274541Y-82216058D01*
X124252942Y-82203587D01*
X124225946Y-82192406D01*
X124177462Y-82160009D01*
X124149972Y-82144138D01*
X124142445Y-82136611D01*
X124136234Y-82132461D01*
X124059938Y-82056165D01*
X124055787Y-82049953D01*
X124048262Y-82042428D01*
X124032392Y-82014940D01*
X123999993Y-81966453D01*
X123988810Y-81939454D01*
X123976342Y-81917859D01*
X123969887Y-81893769D01*
X123958704Y-81866770D01*
X123947324Y-81809564D01*
X123939114Y-81778920D01*
X123938074Y-81763058D01*
X123937051Y-81757914D01*
X123934999Y-81716148D01*
X123934400Y-81707000D01*
X123934400Y-81107000D01*
X123934999Y-81097854D01*
X123937051Y-81056085D01*
X123938074Y-81050939D01*
X123939114Y-81035080D01*
X123947324Y-81004438D01*
X123958704Y-80947229D01*
X123969888Y-80920227D01*
X123976342Y-80896141D01*
X123988808Y-80874548D01*
X123999993Y-80847546D01*
X124032396Y-80799051D01*
X124048262Y-80771572D01*
X124055785Y-80764048D01*
X124059938Y-80757834D01*
X124136234Y-80681538D01*
X124142448Y-80677385D01*
X124149972Y-80669862D01*
X124177451Y-80653996D01*
X124225946Y-80621593D01*
X124252948Y-80610408D01*
X124274541Y-80597942D01*
X124298627Y-80591488D01*
X124325629Y-80580304D01*
X124382834Y-80568925D01*
X124413480Y-80560714D01*
X124424116Y-80560714D01*
X124431451Y-80559255D01*
X124539349Y-80559255D01*
X124546684Y-80560714D01*
G37*
G36*
X143407009Y-80936935D02*
G01*
X143532175Y-80961832D01*
X143650079Y-81010669D01*
X143756190Y-81081570D01*
X143846430Y-81171810D01*
X143917331Y-81277921D01*
X143966168Y-81395825D01*
X143991065Y-81520991D01*
X143991065Y-81648609D01*
X143966168Y-81773775D01*
X143917331Y-81891679D01*
X143846430Y-81997790D01*
X143756190Y-82088030D01*
X143650079Y-82158931D01*
X143532175Y-82207768D01*
X143407009Y-82232665D01*
X143343200Y-82235800D01*
X143340139Y-82235800D01*
X141546261Y-82235800D01*
X141543200Y-82235800D01*
X141479391Y-82232665D01*
X141354225Y-82207768D01*
X141236321Y-82158931D01*
X141130210Y-82088030D01*
X141039970Y-81997790D01*
X140969069Y-81891679D01*
X140920232Y-81773775D01*
X140895335Y-81648609D01*
X140895335Y-81520991D01*
X140920232Y-81395825D01*
X140969069Y-81277921D01*
X141039970Y-81171810D01*
X141130210Y-81081570D01*
X141236321Y-81010669D01*
X141354225Y-80961832D01*
X141479391Y-80936935D01*
X141543200Y-80933800D01*
X143343200Y-80933800D01*
X143407009Y-80936935D01*
G37*
G36*
X124546684Y-78020714D02*
G01*
X124557320Y-78020714D01*
X124587966Y-78028925D01*
X124645170Y-78040304D01*
X124672169Y-78051487D01*
X124696259Y-78057942D01*
X124717854Y-78070410D01*
X124744853Y-78081593D01*
X124793340Y-78113992D01*
X124820828Y-78129862D01*
X124828353Y-78137387D01*
X124834565Y-78141538D01*
X124910861Y-78217834D01*
X124915011Y-78224045D01*
X124922538Y-78231572D01*
X124938409Y-78259062D01*
X124970806Y-78307546D01*
X124981987Y-78334542D01*
X124994458Y-78356141D01*
X125000913Y-78380234D01*
X125012095Y-78407229D01*
X125023471Y-78464424D01*
X125031686Y-78495080D01*
X125032726Y-78510947D01*
X125033748Y-78516085D01*
X125035799Y-78557840D01*
X125036400Y-78567000D01*
X125036400Y-79167000D01*
X125035799Y-79176162D01*
X125033748Y-79217914D01*
X125032726Y-79223051D01*
X125031686Y-79238920D01*
X125023471Y-79269578D01*
X125012095Y-79326770D01*
X125000914Y-79353763D01*
X124994458Y-79377859D01*
X124981986Y-79399460D01*
X124970806Y-79426453D01*
X124938414Y-79474929D01*
X124922538Y-79502428D01*
X124915009Y-79509956D01*
X124910861Y-79516165D01*
X124834565Y-79592461D01*
X124828356Y-79596609D01*
X124820828Y-79604138D01*
X124793329Y-79620014D01*
X124744853Y-79652406D01*
X124717860Y-79663586D01*
X124696259Y-79676058D01*
X124672163Y-79682514D01*
X124645170Y-79693695D01*
X124587973Y-79705072D01*
X124557320Y-79713286D01*
X124546684Y-79713286D01*
X124539349Y-79714745D01*
X124431451Y-79714745D01*
X124424116Y-79713286D01*
X124413480Y-79713286D01*
X124382828Y-79705072D01*
X124325629Y-79693695D01*
X124298634Y-79682513D01*
X124274541Y-79676058D01*
X124252942Y-79663587D01*
X124225946Y-79652406D01*
X124177462Y-79620009D01*
X124149972Y-79604138D01*
X124142445Y-79596611D01*
X124136234Y-79592461D01*
X124059938Y-79516165D01*
X124055787Y-79509953D01*
X124048262Y-79502428D01*
X124032392Y-79474940D01*
X123999993Y-79426453D01*
X123988810Y-79399454D01*
X123976342Y-79377859D01*
X123969887Y-79353769D01*
X123958704Y-79326770D01*
X123947324Y-79269564D01*
X123939114Y-79238920D01*
X123938074Y-79223058D01*
X123937051Y-79217914D01*
X123934999Y-79176148D01*
X123934400Y-79167000D01*
X123934400Y-78567000D01*
X123934999Y-78557854D01*
X123937051Y-78516085D01*
X123938074Y-78510939D01*
X123939114Y-78495080D01*
X123947324Y-78464438D01*
X123958704Y-78407229D01*
X123969888Y-78380227D01*
X123976342Y-78356141D01*
X123988808Y-78334548D01*
X123999993Y-78307546D01*
X124032396Y-78259051D01*
X124048262Y-78231572D01*
X124055785Y-78224048D01*
X124059938Y-78217834D01*
X124136234Y-78141538D01*
X124142448Y-78137385D01*
X124149972Y-78129862D01*
X124177451Y-78113996D01*
X124225946Y-78081593D01*
X124252948Y-78070408D01*
X124274541Y-78057942D01*
X124298627Y-78051488D01*
X124325629Y-78040304D01*
X124382834Y-78028925D01*
X124413480Y-78020714D01*
X124424116Y-78020714D01*
X124431451Y-78019255D01*
X124539349Y-78019255D01*
X124546684Y-78020714D01*
G37*
G36*
X143407009Y-78396935D02*
G01*
X143532175Y-78421832D01*
X143650079Y-78470669D01*
X143756190Y-78541570D01*
X143846430Y-78631810D01*
X143917331Y-78737921D01*
X143966168Y-78855825D01*
X143991065Y-78980991D01*
X143991065Y-79108609D01*
X143966168Y-79233775D01*
X143917331Y-79351679D01*
X143846430Y-79457790D01*
X143756190Y-79548030D01*
X143650079Y-79618931D01*
X143532175Y-79667768D01*
X143407009Y-79692665D01*
X143343200Y-79695800D01*
X143340139Y-79695800D01*
X141546261Y-79695800D01*
X141543200Y-79695800D01*
X141479391Y-79692665D01*
X141354225Y-79667768D01*
X141236321Y-79618931D01*
X141130210Y-79548030D01*
X141039970Y-79457790D01*
X140969069Y-79351679D01*
X140920232Y-79233775D01*
X140895335Y-79108609D01*
X140895335Y-78980991D01*
X140920232Y-78855825D01*
X140969069Y-78737921D01*
X141039970Y-78631810D01*
X141130210Y-78541570D01*
X141236321Y-78470669D01*
X141354225Y-78421832D01*
X141479391Y-78396935D01*
X141543200Y-78393800D01*
X143343200Y-78393800D01*
X143407009Y-78396935D01*
G37*
G36*
X124935632Y-75817444D02*
G01*
X125089759Y-75881285D01*
X125228469Y-75973968D01*
X125346432Y-76091931D01*
X125439115Y-76230641D01*
X125502956Y-76384768D01*
X125535502Y-76548387D01*
X125535502Y-76715213D01*
X125502956Y-76878832D01*
X125439115Y-77032959D01*
X125346432Y-77171669D01*
X125228469Y-77289632D01*
X125089759Y-77382315D01*
X124935632Y-77446156D01*
X124772013Y-77478702D01*
X124605187Y-77478702D01*
X124441568Y-77446156D01*
X124287441Y-77382315D01*
X124148731Y-77289632D01*
X124030768Y-77171669D01*
X123938085Y-77032959D01*
X123874244Y-76878832D01*
X123841698Y-76715213D01*
X123841698Y-76548387D01*
X123874244Y-76384768D01*
X123938085Y-76230641D01*
X124030768Y-76091931D01*
X124148731Y-75973968D01*
X124287441Y-75881285D01*
X124441568Y-75817444D01*
X124605187Y-75784898D01*
X124772013Y-75784898D01*
X124935632Y-75817444D01*
G37*
G36*
X127475632Y-75817444D02*
G01*
X127629759Y-75881285D01*
X127768469Y-75973968D01*
X127886432Y-76091931D01*
X127979115Y-76230641D01*
X128042956Y-76384768D01*
X128075502Y-76548387D01*
X128075502Y-76715213D01*
X128042956Y-76878832D01*
X127979115Y-77032959D01*
X127886432Y-77171669D01*
X127768469Y-77289632D01*
X127629759Y-77382315D01*
X127475632Y-77446156D01*
X127312013Y-77478702D01*
X127145187Y-77478702D01*
X126981568Y-77446156D01*
X126827441Y-77382315D01*
X126688731Y-77289632D01*
X126570768Y-77171669D01*
X126478085Y-77032959D01*
X126414244Y-76878832D01*
X126381698Y-76715213D01*
X126381698Y-76548387D01*
X126414244Y-76384768D01*
X126478085Y-76230641D01*
X126570768Y-76091931D01*
X126688731Y-75973968D01*
X126827441Y-75881285D01*
X126981568Y-75817444D01*
X127145187Y-75784898D01*
X127312013Y-75784898D01*
X127475632Y-75817444D01*
G37*
G36*
X143407009Y-75856935D02*
G01*
X143532175Y-75881832D01*
X143650079Y-75930669D01*
X143756190Y-76001570D01*
X143846430Y-76091810D01*
X143917331Y-76197921D01*
X143966168Y-76315825D01*
X143991065Y-76440991D01*
X143991065Y-76568609D01*
X143966168Y-76693775D01*
X143917331Y-76811679D01*
X143846430Y-76917790D01*
X143756190Y-77008030D01*
X143650079Y-77078931D01*
X143532175Y-77127768D01*
X143407009Y-77152665D01*
X143343200Y-77155800D01*
X143340139Y-77155800D01*
X141546261Y-77155800D01*
X141543200Y-77155800D01*
X141479391Y-77152665D01*
X141354225Y-77127768D01*
X141236321Y-77078931D01*
X141130210Y-77008030D01*
X141039970Y-76917790D01*
X140969069Y-76811679D01*
X140920232Y-76693775D01*
X140895335Y-76568609D01*
X140895335Y-76440991D01*
X140920232Y-76315825D01*
X140969069Y-76197921D01*
X141039970Y-76091810D01*
X141130210Y-76001570D01*
X141236321Y-75930669D01*
X141354225Y-75881832D01*
X141479391Y-75856935D01*
X141543200Y-75853800D01*
X143343200Y-75853800D01*
X143407009Y-75856935D01*
G37*
G36*
X124935632Y-73277444D02*
G01*
X125089759Y-73341285D01*
X125228469Y-73433968D01*
X125346432Y-73551931D01*
X125439115Y-73690641D01*
X125502956Y-73844768D01*
X125535502Y-74008387D01*
X125535502Y-74175213D01*
X125502956Y-74338832D01*
X125439115Y-74492959D01*
X125346432Y-74631669D01*
X125228469Y-74749632D01*
X125089759Y-74842315D01*
X124935632Y-74906156D01*
X124772013Y-74938702D01*
X124605187Y-74938702D01*
X124441568Y-74906156D01*
X124287441Y-74842315D01*
X124148731Y-74749632D01*
X124030768Y-74631669D01*
X123938085Y-74492959D01*
X123874244Y-74338832D01*
X123841698Y-74175213D01*
X123841698Y-74008387D01*
X123874244Y-73844768D01*
X123938085Y-73690641D01*
X124030768Y-73551931D01*
X124148731Y-73433968D01*
X124287441Y-73341285D01*
X124441568Y-73277444D01*
X124605187Y-73244898D01*
X124772013Y-73244898D01*
X124935632Y-73277444D01*
G37*
G36*
X127475632Y-73277444D02*
G01*
X127629759Y-73341285D01*
X127768469Y-73433968D01*
X127886432Y-73551931D01*
X127979115Y-73690641D01*
X128042956Y-73844768D01*
X128075502Y-74008387D01*
X128075502Y-74175213D01*
X128042956Y-74338832D01*
X127979115Y-74492959D01*
X127886432Y-74631669D01*
X127768469Y-74749632D01*
X127629759Y-74842315D01*
X127475632Y-74906156D01*
X127312013Y-74938702D01*
X127145187Y-74938702D01*
X126981568Y-74906156D01*
X126827441Y-74842315D01*
X126688731Y-74749632D01*
X126570768Y-74631669D01*
X126478085Y-74492959D01*
X126414244Y-74338832D01*
X126381698Y-74175213D01*
X126381698Y-74008387D01*
X126414244Y-73844768D01*
X126478085Y-73690641D01*
X126570768Y-73551931D01*
X126688731Y-73433968D01*
X126827441Y-73341285D01*
X126981568Y-73277444D01*
X127145187Y-73244898D01*
X127312013Y-73244898D01*
X127475632Y-73277444D01*
G37*
G36*
X143361518Y-70836091D02*
G01*
X143506589Y-70896181D01*
X143637149Y-70983419D01*
X143748181Y-71094451D01*
X143835419Y-71225011D01*
X143895509Y-71370082D01*
X143926143Y-71524088D01*
X143926143Y-71681112D01*
X143895509Y-71835118D01*
X143835419Y-71980189D01*
X143748181Y-72110749D01*
X143637149Y-72221781D01*
X143506589Y-72309019D01*
X143361518Y-72369109D01*
X143207512Y-72399743D01*
X143050488Y-72399743D01*
X142896482Y-72369109D01*
X142751411Y-72309019D01*
X142620851Y-72221781D01*
X142509819Y-72110749D01*
X142422581Y-71980189D01*
X142362491Y-71835118D01*
X142331857Y-71681112D01*
X142331857Y-71524088D01*
X142362491Y-71370082D01*
X142422581Y-71225011D01*
X142509819Y-71094451D01*
X142620851Y-70983419D01*
X142751411Y-70896181D01*
X142896482Y-70836091D01*
X143050488Y-70805457D01*
X143207512Y-70805457D01*
X143361518Y-70836091D01*
G37*
G36*
X124935632Y-70737444D02*
G01*
X125089759Y-70801285D01*
X125228469Y-70893968D01*
X125346432Y-71011931D01*
X125439115Y-71150641D01*
X125502956Y-71304768D01*
X125535502Y-71468387D01*
X125535502Y-71635213D01*
X125502956Y-71798832D01*
X125439115Y-71952959D01*
X125346432Y-72091669D01*
X125228469Y-72209632D01*
X125089759Y-72302315D01*
X124935632Y-72366156D01*
X124772013Y-72398702D01*
X124605187Y-72398702D01*
X124441568Y-72366156D01*
X124287441Y-72302315D01*
X124148731Y-72209632D01*
X124030768Y-72091669D01*
X123938085Y-71952959D01*
X123874244Y-71798832D01*
X123841698Y-71635213D01*
X123841698Y-71468387D01*
X123874244Y-71304768D01*
X123938085Y-71150641D01*
X124030768Y-71011931D01*
X124148731Y-70893968D01*
X124287441Y-70801285D01*
X124441568Y-70737444D01*
X124605187Y-70704898D01*
X124772013Y-70704898D01*
X124935632Y-70737444D01*
G37*
G36*
X127475632Y-70737444D02*
G01*
X127629759Y-70801285D01*
X127768469Y-70893968D01*
X127886432Y-71011931D01*
X127979115Y-71150641D01*
X128042956Y-71304768D01*
X128075502Y-71468387D01*
X128075502Y-71635213D01*
X128042956Y-71798832D01*
X127979115Y-71952959D01*
X127886432Y-72091669D01*
X127768469Y-72209632D01*
X127629759Y-72302315D01*
X127475632Y-72366156D01*
X127312013Y-72398702D01*
X127145187Y-72398702D01*
X126981568Y-72366156D01*
X126827441Y-72302315D01*
X126688731Y-72209632D01*
X126570768Y-72091669D01*
X126478085Y-71952959D01*
X126414244Y-71798832D01*
X126381698Y-71635213D01*
X126381698Y-71468387D01*
X126414244Y-71304768D01*
X126478085Y-71150641D01*
X126570768Y-71011931D01*
X126688731Y-70893968D01*
X126827441Y-70801285D01*
X126981568Y-70737444D01*
X127145187Y-70704898D01*
X127312013Y-70704898D01*
X127475632Y-70737444D01*
G37*
M02*
