M48
; DRILL file KiCad 10.0.5 date 2026-08-15T14:53:23
; FORMAT={-:-/ absolute / metric / decimal}
; #@! TF.CreationDate,2026-08-15T14:53:23+01:00
; #@! TF.GenerationSoftware,Kicad,Pcbnew,10.0.5
; #@! TF.FileFunction,Plated,1,2,PTH
FMAT,2
METRIC
; #@! TA.AperFunction,Plated,PTH,ViaDrill
T1C0.400
; #@! TA.AperFunction,Plated,PTH,ComponentDrill
T2C0.800
; #@! TA.AperFunction,Plated,PTH,ComponentDrill
T3C1.000
%
G90
G05
T1
X127.923Y-80.738
X130.404Y-74.981
X131.826Y-71.46
X131.943Y-74.257
X134.061Y-75.133
X134.722Y-77.902
X136.03Y-73.939
X137.897Y-76.378
T2
X124.485Y-78.867
X124.485Y-81.407
T3
X124.689Y-71.552
X124.689Y-74.092
X124.689Y-76.632
X127.229Y-71.552
X127.229Y-74.092
X127.229Y-76.632
X142.443Y-76.505
X142.443Y-79.045
X142.443Y-81.585
X143.129Y-71.603
M30
