G04 #@! TF.GenerationSoftware,KiCad,Pcbnew,10.0.5*
G04 #@! TF.CreationDate,2026-08-15T14:53:27+01:00*
G04 #@! TF.ProjectId,attiny85_ws2812_touch,61747469-6e79-4383-955f-777332383132,rev?*
G04 #@! TF.SameCoordinates,Original*
G04 #@! TF.FileFunction,Legend,Bot*
G04 #@! TF.FilePolarity,Positive*
%FSLAX46Y46*%
G04 Gerber Fmt 4.6, Leading zero omitted, Abs format (unit mm)*
G04 Created by KiCad (PCBNEW 10.0.5) date 2026-08-15 14:53:27*
%MOMM*%
%LPD*%
G01*
G04 APERTURE LIST*
%ADD10C,0.250000*%
G04 APERTURE END LIST*
D10*
X137697504Y-78215019D02*
X137459409Y-79215019D01*
X137459409Y-79215019D02*
X137268933Y-78500733D01*
X137268933Y-78500733D02*
X137078457Y-79215019D01*
X137078457Y-79215019D02*
X136840362Y-78215019D01*
X136507028Y-79167400D02*
X136364171Y-79215019D01*
X136364171Y-79215019D02*
X136126076Y-79215019D01*
X136126076Y-79215019D02*
X136030838Y-79167400D01*
X136030838Y-79167400D02*
X135983219Y-79119780D01*
X135983219Y-79119780D02*
X135935600Y-79024542D01*
X135935600Y-79024542D02*
X135935600Y-78929304D01*
X135935600Y-78929304D02*
X135983219Y-78834066D01*
X135983219Y-78834066D02*
X136030838Y-78786447D01*
X136030838Y-78786447D02*
X136126076Y-78738828D01*
X136126076Y-78738828D02*
X136316552Y-78691209D01*
X136316552Y-78691209D02*
X136411790Y-78643590D01*
X136411790Y-78643590D02*
X136459409Y-78595971D01*
X136459409Y-78595971D02*
X136507028Y-78500733D01*
X136507028Y-78500733D02*
X136507028Y-78405495D01*
X136507028Y-78405495D02*
X136459409Y-78310257D01*
X136459409Y-78310257D02*
X136411790Y-78262638D01*
X136411790Y-78262638D02*
X136316552Y-78215019D01*
X136316552Y-78215019D02*
X136078457Y-78215019D01*
X136078457Y-78215019D02*
X135935600Y-78262638D01*
X135554647Y-78310257D02*
X135507028Y-78262638D01*
X135507028Y-78262638D02*
X135411790Y-78215019D01*
X135411790Y-78215019D02*
X135173695Y-78215019D01*
X135173695Y-78215019D02*
X135078457Y-78262638D01*
X135078457Y-78262638D02*
X135030838Y-78310257D01*
X135030838Y-78310257D02*
X134983219Y-78405495D01*
X134983219Y-78405495D02*
X134983219Y-78500733D01*
X134983219Y-78500733D02*
X135030838Y-78643590D01*
X135030838Y-78643590D02*
X135602266Y-79215019D01*
X135602266Y-79215019D02*
X134983219Y-79215019D01*
X134411790Y-78643590D02*
X134507028Y-78595971D01*
X134507028Y-78595971D02*
X134554647Y-78548352D01*
X134554647Y-78548352D02*
X134602266Y-78453114D01*
X134602266Y-78453114D02*
X134602266Y-78405495D01*
X134602266Y-78405495D02*
X134554647Y-78310257D01*
X134554647Y-78310257D02*
X134507028Y-78262638D01*
X134507028Y-78262638D02*
X134411790Y-78215019D01*
X134411790Y-78215019D02*
X134221314Y-78215019D01*
X134221314Y-78215019D02*
X134126076Y-78262638D01*
X134126076Y-78262638D02*
X134078457Y-78310257D01*
X134078457Y-78310257D02*
X134030838Y-78405495D01*
X134030838Y-78405495D02*
X134030838Y-78453114D01*
X134030838Y-78453114D02*
X134078457Y-78548352D01*
X134078457Y-78548352D02*
X134126076Y-78595971D01*
X134126076Y-78595971D02*
X134221314Y-78643590D01*
X134221314Y-78643590D02*
X134411790Y-78643590D01*
X134411790Y-78643590D02*
X134507028Y-78691209D01*
X134507028Y-78691209D02*
X134554647Y-78738828D01*
X134554647Y-78738828D02*
X134602266Y-78834066D01*
X134602266Y-78834066D02*
X134602266Y-79024542D01*
X134602266Y-79024542D02*
X134554647Y-79119780D01*
X134554647Y-79119780D02*
X134507028Y-79167400D01*
X134507028Y-79167400D02*
X134411790Y-79215019D01*
X134411790Y-79215019D02*
X134221314Y-79215019D01*
X134221314Y-79215019D02*
X134126076Y-79167400D01*
X134126076Y-79167400D02*
X134078457Y-79119780D01*
X134078457Y-79119780D02*
X134030838Y-79024542D01*
X134030838Y-79024542D02*
X134030838Y-78834066D01*
X134030838Y-78834066D02*
X134078457Y-78738828D01*
X134078457Y-78738828D02*
X134126076Y-78691209D01*
X134126076Y-78691209D02*
X134221314Y-78643590D01*
X133078457Y-79215019D02*
X133649885Y-79215019D01*
X133364171Y-79215019D02*
X133364171Y-78215019D01*
X133364171Y-78215019D02*
X133459409Y-78357876D01*
X133459409Y-78357876D02*
X133554647Y-78453114D01*
X133554647Y-78453114D02*
X133649885Y-78500733D01*
X132697504Y-78310257D02*
X132649885Y-78262638D01*
X132649885Y-78262638D02*
X132554647Y-78215019D01*
X132554647Y-78215019D02*
X132316552Y-78215019D01*
X132316552Y-78215019D02*
X132221314Y-78262638D01*
X132221314Y-78262638D02*
X132173695Y-78310257D01*
X132173695Y-78310257D02*
X132126076Y-78405495D01*
X132126076Y-78405495D02*
X132126076Y-78500733D01*
X132126076Y-78500733D02*
X132173695Y-78643590D01*
X132173695Y-78643590D02*
X132745123Y-79215019D01*
X132745123Y-79215019D02*
X132126076Y-79215019D01*
X131078456Y-78548352D02*
X130697504Y-78548352D01*
X130935599Y-78215019D02*
X130935599Y-79072161D01*
X130935599Y-79072161D02*
X130887980Y-79167400D01*
X130887980Y-79167400D02*
X130792742Y-79215019D01*
X130792742Y-79215019D02*
X130697504Y-79215019D01*
X130221313Y-79215019D02*
X130316551Y-79167400D01*
X130316551Y-79167400D02*
X130364170Y-79119780D01*
X130364170Y-79119780D02*
X130411789Y-79024542D01*
X130411789Y-79024542D02*
X130411789Y-78738828D01*
X130411789Y-78738828D02*
X130364170Y-78643590D01*
X130364170Y-78643590D02*
X130316551Y-78595971D01*
X130316551Y-78595971D02*
X130221313Y-78548352D01*
X130221313Y-78548352D02*
X130078456Y-78548352D01*
X130078456Y-78548352D02*
X129983218Y-78595971D01*
X129983218Y-78595971D02*
X129935599Y-78643590D01*
X129935599Y-78643590D02*
X129887980Y-78738828D01*
X129887980Y-78738828D02*
X129887980Y-79024542D01*
X129887980Y-79024542D02*
X129935599Y-79119780D01*
X129935599Y-79119780D02*
X129983218Y-79167400D01*
X129983218Y-79167400D02*
X130078456Y-79215019D01*
X130078456Y-79215019D02*
X130221313Y-79215019D01*
X129030837Y-78548352D02*
X129030837Y-79215019D01*
X129459408Y-78548352D02*
X129459408Y-79072161D01*
X129459408Y-79072161D02*
X129411789Y-79167400D01*
X129411789Y-79167400D02*
X129316551Y-79215019D01*
X129316551Y-79215019D02*
X129173694Y-79215019D01*
X129173694Y-79215019D02*
X129078456Y-79167400D01*
X129078456Y-79167400D02*
X129030837Y-79119780D01*
X128126075Y-79167400D02*
X128221313Y-79215019D01*
X128221313Y-79215019D02*
X128411789Y-79215019D01*
X128411789Y-79215019D02*
X128507027Y-79167400D01*
X128507027Y-79167400D02*
X128554646Y-79119780D01*
X128554646Y-79119780D02*
X128602265Y-79024542D01*
X128602265Y-79024542D02*
X128602265Y-78738828D01*
X128602265Y-78738828D02*
X128554646Y-78643590D01*
X128554646Y-78643590D02*
X128507027Y-78595971D01*
X128507027Y-78595971D02*
X128411789Y-78548352D01*
X128411789Y-78548352D02*
X128221313Y-78548352D01*
X128221313Y-78548352D02*
X128126075Y-78595971D01*
X127697503Y-79215019D02*
X127697503Y-78215019D01*
X127268932Y-79215019D02*
X127268932Y-78691209D01*
X127268932Y-78691209D02*
X127316551Y-78595971D01*
X127316551Y-78595971D02*
X127411789Y-78548352D01*
X127411789Y-78548352D02*
X127554646Y-78548352D01*
X127554646Y-78548352D02*
X127649884Y-78595971D01*
X127649884Y-78595971D02*
X127697503Y-78643590D01*
X138881620Y-80621609D02*
X139214953Y-80621609D01*
X139214953Y-81145419D02*
X139214953Y-80145419D01*
X139214953Y-80145419D02*
X138738763Y-80145419D01*
X137929239Y-81145419D02*
X137929239Y-80621609D01*
X137929239Y-80621609D02*
X137976858Y-80526371D01*
X137976858Y-80526371D02*
X138072096Y-80478752D01*
X138072096Y-80478752D02*
X138262572Y-80478752D01*
X138262572Y-80478752D02*
X138357810Y-80526371D01*
X137929239Y-81097800D02*
X138024477Y-81145419D01*
X138024477Y-81145419D02*
X138262572Y-81145419D01*
X138262572Y-81145419D02*
X138357810Y-81097800D01*
X138357810Y-81097800D02*
X138405429Y-81002561D01*
X138405429Y-81002561D02*
X138405429Y-80907323D01*
X138405429Y-80907323D02*
X138357810Y-80812085D01*
X138357810Y-80812085D02*
X138262572Y-80764466D01*
X138262572Y-80764466D02*
X138024477Y-80764466D01*
X138024477Y-80764466D02*
X137929239Y-80716847D01*
X137024477Y-81097800D02*
X137119715Y-81145419D01*
X137119715Y-81145419D02*
X137310191Y-81145419D01*
X137310191Y-81145419D02*
X137405429Y-81097800D01*
X137405429Y-81097800D02*
X137453048Y-81050180D01*
X137453048Y-81050180D02*
X137500667Y-80954942D01*
X137500667Y-80954942D02*
X137500667Y-80669228D01*
X137500667Y-80669228D02*
X137453048Y-80573990D01*
X137453048Y-80573990D02*
X137405429Y-80526371D01*
X137405429Y-80526371D02*
X137310191Y-80478752D01*
X137310191Y-80478752D02*
X137119715Y-80478752D01*
X137119715Y-80478752D02*
X137024477Y-80526371D01*
X136214953Y-81097800D02*
X136310191Y-81145419D01*
X136310191Y-81145419D02*
X136500667Y-81145419D01*
X136500667Y-81145419D02*
X136595905Y-81097800D01*
X136595905Y-81097800D02*
X136643524Y-81002561D01*
X136643524Y-81002561D02*
X136643524Y-80621609D01*
X136643524Y-80621609D02*
X136595905Y-80526371D01*
X136595905Y-80526371D02*
X136500667Y-80478752D01*
X136500667Y-80478752D02*
X136310191Y-80478752D01*
X136310191Y-80478752D02*
X136214953Y-80526371D01*
X136214953Y-80526371D02*
X136167334Y-80621609D01*
X136167334Y-80621609D02*
X136167334Y-80716847D01*
X136167334Y-80716847D02*
X136643524Y-80812085D01*
X135595905Y-81145419D02*
X135691143Y-81097800D01*
X135691143Y-81097800D02*
X135738762Y-81002561D01*
X135738762Y-81002561D02*
X135738762Y-80145419D01*
X134834000Y-81097800D02*
X134929238Y-81145419D01*
X134929238Y-81145419D02*
X135119714Y-81145419D01*
X135119714Y-81145419D02*
X135214952Y-81097800D01*
X135214952Y-81097800D02*
X135262571Y-81002561D01*
X135262571Y-81002561D02*
X135262571Y-80621609D01*
X135262571Y-80621609D02*
X135214952Y-80526371D01*
X135214952Y-80526371D02*
X135119714Y-80478752D01*
X135119714Y-80478752D02*
X134929238Y-80478752D01*
X134929238Y-80478752D02*
X134834000Y-80526371D01*
X134834000Y-80526371D02*
X134786381Y-80621609D01*
X134786381Y-80621609D02*
X134786381Y-80716847D01*
X134786381Y-80716847D02*
X135262571Y-80812085D01*
X134405428Y-81097800D02*
X134310190Y-81145419D01*
X134310190Y-81145419D02*
X134119714Y-81145419D01*
X134119714Y-81145419D02*
X134024476Y-81097800D01*
X134024476Y-81097800D02*
X133976857Y-81002561D01*
X133976857Y-81002561D02*
X133976857Y-80954942D01*
X133976857Y-80954942D02*
X134024476Y-80859704D01*
X134024476Y-80859704D02*
X134119714Y-80812085D01*
X134119714Y-80812085D02*
X134262571Y-80812085D01*
X134262571Y-80812085D02*
X134357809Y-80764466D01*
X134357809Y-80764466D02*
X134405428Y-80669228D01*
X134405428Y-80669228D02*
X134405428Y-80621609D01*
X134405428Y-80621609D02*
X134357809Y-80526371D01*
X134357809Y-80526371D02*
X134262571Y-80478752D01*
X134262571Y-80478752D02*
X134119714Y-80478752D01*
X134119714Y-80478752D02*
X134024476Y-80526371D01*
X133595904Y-81097800D02*
X133500666Y-81145419D01*
X133500666Y-81145419D02*
X133310190Y-81145419D01*
X133310190Y-81145419D02*
X133214952Y-81097800D01*
X133214952Y-81097800D02*
X133167333Y-81002561D01*
X133167333Y-81002561D02*
X133167333Y-80954942D01*
X133167333Y-80954942D02*
X133214952Y-80859704D01*
X133214952Y-80859704D02*
X133310190Y-80812085D01*
X133310190Y-80812085D02*
X133453047Y-80812085D01*
X133453047Y-80812085D02*
X133548285Y-80764466D01*
X133548285Y-80764466D02*
X133595904Y-80669228D01*
X133595904Y-80669228D02*
X133595904Y-80621609D01*
X133595904Y-80621609D02*
X133548285Y-80526371D01*
X133548285Y-80526371D02*
X133453047Y-80478752D01*
X133453047Y-80478752D02*
X133310190Y-80478752D01*
X133310190Y-80478752D02*
X133214952Y-80526371D01*
X132881618Y-80478752D02*
X132500666Y-80478752D01*
X132738761Y-80145419D02*
X132738761Y-81002561D01*
X132738761Y-81002561D02*
X132691142Y-81097800D01*
X132691142Y-81097800D02*
X132595904Y-81145419D01*
X132595904Y-81145419D02*
X132500666Y-81145419D01*
X131786380Y-81097800D02*
X131881618Y-81145419D01*
X131881618Y-81145419D02*
X132072094Y-81145419D01*
X132072094Y-81145419D02*
X132167332Y-81097800D01*
X132167332Y-81097800D02*
X132214951Y-81002561D01*
X132214951Y-81002561D02*
X132214951Y-80621609D01*
X132214951Y-80621609D02*
X132167332Y-80526371D01*
X132167332Y-80526371D02*
X132072094Y-80478752D01*
X132072094Y-80478752D02*
X131881618Y-80478752D01*
X131881618Y-80478752D02*
X131786380Y-80526371D01*
X131786380Y-80526371D02*
X131738761Y-80621609D01*
X131738761Y-80621609D02*
X131738761Y-80716847D01*
X131738761Y-80716847D02*
X132214951Y-80812085D01*
X130881618Y-81097800D02*
X130976856Y-81145419D01*
X130976856Y-81145419D02*
X131167332Y-81145419D01*
X131167332Y-81145419D02*
X131262570Y-81097800D01*
X131262570Y-81097800D02*
X131310189Y-81050180D01*
X131310189Y-81050180D02*
X131357808Y-80954942D01*
X131357808Y-80954942D02*
X131357808Y-80669228D01*
X131357808Y-80669228D02*
X131310189Y-80573990D01*
X131310189Y-80573990D02*
X131262570Y-80526371D01*
X131262570Y-80526371D02*
X131167332Y-80478752D01*
X131167332Y-80478752D02*
X130976856Y-80478752D01*
X130976856Y-80478752D02*
X130881618Y-80526371D01*
X130453046Y-81145419D02*
X130453046Y-80145419D01*
X130024475Y-81145419D02*
X130024475Y-80621609D01*
X130024475Y-80621609D02*
X130072094Y-80526371D01*
X130072094Y-80526371D02*
X130167332Y-80478752D01*
X130167332Y-80478752D02*
X130310189Y-80478752D01*
X130310189Y-80478752D02*
X130405427Y-80526371D01*
X130405427Y-80526371D02*
X130453046Y-80573990D01*
X128833998Y-80240657D02*
X128786379Y-80193038D01*
X128786379Y-80193038D02*
X128691141Y-80145419D01*
X128691141Y-80145419D02*
X128453046Y-80145419D01*
X128453046Y-80145419D02*
X128357808Y-80193038D01*
X128357808Y-80193038D02*
X128310189Y-80240657D01*
X128310189Y-80240657D02*
X128262570Y-80335895D01*
X128262570Y-80335895D02*
X128262570Y-80431133D01*
X128262570Y-80431133D02*
X128310189Y-80573990D01*
X128310189Y-80573990D02*
X128881617Y-81145419D01*
X128881617Y-81145419D02*
X128262570Y-81145419D01*
X127643522Y-80145419D02*
X127548284Y-80145419D01*
X127548284Y-80145419D02*
X127453046Y-80193038D01*
X127453046Y-80193038D02*
X127405427Y-80240657D01*
X127405427Y-80240657D02*
X127357808Y-80335895D01*
X127357808Y-80335895D02*
X127310189Y-80526371D01*
X127310189Y-80526371D02*
X127310189Y-80764466D01*
X127310189Y-80764466D02*
X127357808Y-80954942D01*
X127357808Y-80954942D02*
X127405427Y-81050180D01*
X127405427Y-81050180D02*
X127453046Y-81097800D01*
X127453046Y-81097800D02*
X127548284Y-81145419D01*
X127548284Y-81145419D02*
X127643522Y-81145419D01*
X127643522Y-81145419D02*
X127738760Y-81097800D01*
X127738760Y-81097800D02*
X127786379Y-81050180D01*
X127786379Y-81050180D02*
X127833998Y-80954942D01*
X127833998Y-80954942D02*
X127881617Y-80764466D01*
X127881617Y-80764466D02*
X127881617Y-80526371D01*
X127881617Y-80526371D02*
X127833998Y-80335895D01*
X127833998Y-80335895D02*
X127786379Y-80240657D01*
X127786379Y-80240657D02*
X127738760Y-80193038D01*
X127738760Y-80193038D02*
X127643522Y-80145419D01*
X126929236Y-80240657D02*
X126881617Y-80193038D01*
X126881617Y-80193038D02*
X126786379Y-80145419D01*
X126786379Y-80145419D02*
X126548284Y-80145419D01*
X126548284Y-80145419D02*
X126453046Y-80193038D01*
X126453046Y-80193038D02*
X126405427Y-80240657D01*
X126405427Y-80240657D02*
X126357808Y-80335895D01*
X126357808Y-80335895D02*
X126357808Y-80431133D01*
X126357808Y-80431133D02*
X126405427Y-80573990D01*
X126405427Y-80573990D02*
X126976855Y-81145419D01*
X126976855Y-81145419D02*
X126357808Y-81145419D01*
X126024474Y-80145419D02*
X125405427Y-80145419D01*
X125405427Y-80145419D02*
X125738760Y-80526371D01*
X125738760Y-80526371D02*
X125595903Y-80526371D01*
X125595903Y-80526371D02*
X125500665Y-80573990D01*
X125500665Y-80573990D02*
X125453046Y-80621609D01*
X125453046Y-80621609D02*
X125405427Y-80716847D01*
X125405427Y-80716847D02*
X125405427Y-80954942D01*
X125405427Y-80954942D02*
X125453046Y-81050180D01*
X125453046Y-81050180D02*
X125500665Y-81097800D01*
X125500665Y-81097800D02*
X125595903Y-81145419D01*
X125595903Y-81145419D02*
X125881617Y-81145419D01*
X125881617Y-81145419D02*
X125976855Y-81097800D01*
X125976855Y-81097800D02*
X126024474Y-81050180D01*
M02*
