G04 #@! TF.GenerationSoftware,KiCad,Pcbnew,7.0.3*
G04 #@! TF.CreationDate,2023-07-10T18:08:13+01:00*
G04 #@! TF.ProjectId,attiny85_ws2812_touch,61747469-6e79-4383-955f-777332383132,rev?*
G04 #@! TF.SameCoordinates,Original*
G04 #@! TF.FileFunction,Legend,Bot*
G04 #@! TF.FilePolarity,Positive*
%FSLAX46Y46*%
G04 Gerber Fmt 4.6, Leading zero omitted, Abs format (unit mm)*
G04 Created by KiCad (PCBNEW 7.0.3) date 2023-07-10 18:08:13*
%MOMM*%
%LPD*%
G01*
G04 APERTURE LIST*
%ADD10C,0.250000*%
G04 APERTURE END LIST*
D10*
X137533031Y-78215019D02*
X137294936Y-79215019D01*
X137294936Y-79215019D02*
X137104460Y-78500733D01*
X137104460Y-78500733D02*
X136913984Y-79215019D01*
X136913984Y-79215019D02*
X136675889Y-78215019D01*
X136342555Y-79167400D02*
X136199698Y-79215019D01*
X136199698Y-79215019D02*
X135961603Y-79215019D01*
X135961603Y-79215019D02*
X135866365Y-79167400D01*
X135866365Y-79167400D02*
X135818746Y-79119780D01*
X135818746Y-79119780D02*
X135771127Y-79024542D01*
X135771127Y-79024542D02*
X135771127Y-78929304D01*
X135771127Y-78929304D02*
X135818746Y-78834066D01*
X135818746Y-78834066D02*
X135866365Y-78786447D01*
X135866365Y-78786447D02*
X135961603Y-78738828D01*
X135961603Y-78738828D02*
X136152079Y-78691209D01*
X136152079Y-78691209D02*
X136247317Y-78643590D01*
X136247317Y-78643590D02*
X136294936Y-78595971D01*
X136294936Y-78595971D02*
X136342555Y-78500733D01*
X136342555Y-78500733D02*
X136342555Y-78405495D01*
X136342555Y-78405495D02*
X136294936Y-78310257D01*
X136294936Y-78310257D02*
X136247317Y-78262638D01*
X136247317Y-78262638D02*
X136152079Y-78215019D01*
X136152079Y-78215019D02*
X135913984Y-78215019D01*
X135913984Y-78215019D02*
X135771127Y-78262638D01*
X135390174Y-78310257D02*
X135342555Y-78262638D01*
X135342555Y-78262638D02*
X135247317Y-78215019D01*
X135247317Y-78215019D02*
X135009222Y-78215019D01*
X135009222Y-78215019D02*
X134913984Y-78262638D01*
X134913984Y-78262638D02*
X134866365Y-78310257D01*
X134866365Y-78310257D02*
X134818746Y-78405495D01*
X134818746Y-78405495D02*
X134818746Y-78500733D01*
X134818746Y-78500733D02*
X134866365Y-78643590D01*
X134866365Y-78643590D02*
X135437793Y-79215019D01*
X135437793Y-79215019D02*
X134818746Y-79215019D01*
X134247317Y-78643590D02*
X134342555Y-78595971D01*
X134342555Y-78595971D02*
X134390174Y-78548352D01*
X134390174Y-78548352D02*
X134437793Y-78453114D01*
X134437793Y-78453114D02*
X134437793Y-78405495D01*
X134437793Y-78405495D02*
X134390174Y-78310257D01*
X134390174Y-78310257D02*
X134342555Y-78262638D01*
X134342555Y-78262638D02*
X134247317Y-78215019D01*
X134247317Y-78215019D02*
X134056841Y-78215019D01*
X134056841Y-78215019D02*
X133961603Y-78262638D01*
X133961603Y-78262638D02*
X133913984Y-78310257D01*
X133913984Y-78310257D02*
X133866365Y-78405495D01*
X133866365Y-78405495D02*
X133866365Y-78453114D01*
X133866365Y-78453114D02*
X133913984Y-78548352D01*
X133913984Y-78548352D02*
X133961603Y-78595971D01*
X133961603Y-78595971D02*
X134056841Y-78643590D01*
X134056841Y-78643590D02*
X134247317Y-78643590D01*
X134247317Y-78643590D02*
X134342555Y-78691209D01*
X134342555Y-78691209D02*
X134390174Y-78738828D01*
X134390174Y-78738828D02*
X134437793Y-78834066D01*
X134437793Y-78834066D02*
X134437793Y-79024542D01*
X134437793Y-79024542D02*
X134390174Y-79119780D01*
X134390174Y-79119780D02*
X134342555Y-79167400D01*
X134342555Y-79167400D02*
X134247317Y-79215019D01*
X134247317Y-79215019D02*
X134056841Y-79215019D01*
X134056841Y-79215019D02*
X133961603Y-79167400D01*
X133961603Y-79167400D02*
X133913984Y-79119780D01*
X133913984Y-79119780D02*
X133866365Y-79024542D01*
X133866365Y-79024542D02*
X133866365Y-78834066D01*
X133866365Y-78834066D02*
X133913984Y-78738828D01*
X133913984Y-78738828D02*
X133961603Y-78691209D01*
X133961603Y-78691209D02*
X134056841Y-78643590D01*
X132913984Y-79215019D02*
X133485412Y-79215019D01*
X133199698Y-79215019D02*
X133199698Y-78215019D01*
X133199698Y-78215019D02*
X133294936Y-78357876D01*
X133294936Y-78357876D02*
X133390174Y-78453114D01*
X133390174Y-78453114D02*
X133485412Y-78500733D01*
X132533031Y-78310257D02*
X132485412Y-78262638D01*
X132485412Y-78262638D02*
X132390174Y-78215019D01*
X132390174Y-78215019D02*
X132152079Y-78215019D01*
X132152079Y-78215019D02*
X132056841Y-78262638D01*
X132056841Y-78262638D02*
X132009222Y-78310257D01*
X132009222Y-78310257D02*
X131961603Y-78405495D01*
X131961603Y-78405495D02*
X131961603Y-78500733D01*
X131961603Y-78500733D02*
X132009222Y-78643590D01*
X132009222Y-78643590D02*
X132580650Y-79215019D01*
X132580650Y-79215019D02*
X131961603Y-79215019D01*
X130913983Y-78548352D02*
X130533031Y-78548352D01*
X130771126Y-78215019D02*
X130771126Y-79072161D01*
X130771126Y-79072161D02*
X130723507Y-79167400D01*
X130723507Y-79167400D02*
X130628269Y-79215019D01*
X130628269Y-79215019D02*
X130533031Y-79215019D01*
X130056840Y-79215019D02*
X130152078Y-79167400D01*
X130152078Y-79167400D02*
X130199697Y-79119780D01*
X130199697Y-79119780D02*
X130247316Y-79024542D01*
X130247316Y-79024542D02*
X130247316Y-78738828D01*
X130247316Y-78738828D02*
X130199697Y-78643590D01*
X130199697Y-78643590D02*
X130152078Y-78595971D01*
X130152078Y-78595971D02*
X130056840Y-78548352D01*
X130056840Y-78548352D02*
X129913983Y-78548352D01*
X129913983Y-78548352D02*
X129818745Y-78595971D01*
X129818745Y-78595971D02*
X129771126Y-78643590D01*
X129771126Y-78643590D02*
X129723507Y-78738828D01*
X129723507Y-78738828D02*
X129723507Y-79024542D01*
X129723507Y-79024542D02*
X129771126Y-79119780D01*
X129771126Y-79119780D02*
X129818745Y-79167400D01*
X129818745Y-79167400D02*
X129913983Y-79215019D01*
X129913983Y-79215019D02*
X130056840Y-79215019D01*
X128866364Y-78548352D02*
X128866364Y-79215019D01*
X129294935Y-78548352D02*
X129294935Y-79072161D01*
X129294935Y-79072161D02*
X129247316Y-79167400D01*
X129247316Y-79167400D02*
X129152078Y-79215019D01*
X129152078Y-79215019D02*
X129009221Y-79215019D01*
X129009221Y-79215019D02*
X128913983Y-79167400D01*
X128913983Y-79167400D02*
X128866364Y-79119780D01*
X127961602Y-79167400D02*
X128056840Y-79215019D01*
X128056840Y-79215019D02*
X128247316Y-79215019D01*
X128247316Y-79215019D02*
X128342554Y-79167400D01*
X128342554Y-79167400D02*
X128390173Y-79119780D01*
X128390173Y-79119780D02*
X128437792Y-79024542D01*
X128437792Y-79024542D02*
X128437792Y-78738828D01*
X128437792Y-78738828D02*
X128390173Y-78643590D01*
X128390173Y-78643590D02*
X128342554Y-78595971D01*
X128342554Y-78595971D02*
X128247316Y-78548352D01*
X128247316Y-78548352D02*
X128056840Y-78548352D01*
X128056840Y-78548352D02*
X127961602Y-78595971D01*
X127533030Y-79215019D02*
X127533030Y-78215019D01*
X127104459Y-79215019D02*
X127104459Y-78691209D01*
X127104459Y-78691209D02*
X127152078Y-78595971D01*
X127152078Y-78595971D02*
X127247316Y-78548352D01*
X127247316Y-78548352D02*
X127390173Y-78548352D01*
X127390173Y-78548352D02*
X127485411Y-78595971D01*
X127485411Y-78595971D02*
X127533030Y-78643590D01*
X138717147Y-80621609D02*
X139050480Y-80621609D01*
X139050480Y-81145419D02*
X139050480Y-80145419D01*
X139050480Y-80145419D02*
X138574290Y-80145419D01*
X137764766Y-81145419D02*
X137764766Y-80621609D01*
X137764766Y-80621609D02*
X137812385Y-80526371D01*
X137812385Y-80526371D02*
X137907623Y-80478752D01*
X137907623Y-80478752D02*
X138098099Y-80478752D01*
X138098099Y-80478752D02*
X138193337Y-80526371D01*
X137764766Y-81097800D02*
X137860004Y-81145419D01*
X137860004Y-81145419D02*
X138098099Y-81145419D01*
X138098099Y-81145419D02*
X138193337Y-81097800D01*
X138193337Y-81097800D02*
X138240956Y-81002561D01*
X138240956Y-81002561D02*
X138240956Y-80907323D01*
X138240956Y-80907323D02*
X138193337Y-80812085D01*
X138193337Y-80812085D02*
X138098099Y-80764466D01*
X138098099Y-80764466D02*
X137860004Y-80764466D01*
X137860004Y-80764466D02*
X137764766Y-80716847D01*
X136860004Y-81097800D02*
X136955242Y-81145419D01*
X136955242Y-81145419D02*
X137145718Y-81145419D01*
X137145718Y-81145419D02*
X137240956Y-81097800D01*
X137240956Y-81097800D02*
X137288575Y-81050180D01*
X137288575Y-81050180D02*
X137336194Y-80954942D01*
X137336194Y-80954942D02*
X137336194Y-80669228D01*
X137336194Y-80669228D02*
X137288575Y-80573990D01*
X137288575Y-80573990D02*
X137240956Y-80526371D01*
X137240956Y-80526371D02*
X137145718Y-80478752D01*
X137145718Y-80478752D02*
X136955242Y-80478752D01*
X136955242Y-80478752D02*
X136860004Y-80526371D01*
X136050480Y-81097800D02*
X136145718Y-81145419D01*
X136145718Y-81145419D02*
X136336194Y-81145419D01*
X136336194Y-81145419D02*
X136431432Y-81097800D01*
X136431432Y-81097800D02*
X136479051Y-81002561D01*
X136479051Y-81002561D02*
X136479051Y-80621609D01*
X136479051Y-80621609D02*
X136431432Y-80526371D01*
X136431432Y-80526371D02*
X136336194Y-80478752D01*
X136336194Y-80478752D02*
X136145718Y-80478752D01*
X136145718Y-80478752D02*
X136050480Y-80526371D01*
X136050480Y-80526371D02*
X136002861Y-80621609D01*
X136002861Y-80621609D02*
X136002861Y-80716847D01*
X136002861Y-80716847D02*
X136479051Y-80812085D01*
X135431432Y-81145419D02*
X135526670Y-81097800D01*
X135526670Y-81097800D02*
X135574289Y-81002561D01*
X135574289Y-81002561D02*
X135574289Y-80145419D01*
X134669527Y-81097800D02*
X134764765Y-81145419D01*
X134764765Y-81145419D02*
X134955241Y-81145419D01*
X134955241Y-81145419D02*
X135050479Y-81097800D01*
X135050479Y-81097800D02*
X135098098Y-81002561D01*
X135098098Y-81002561D02*
X135098098Y-80621609D01*
X135098098Y-80621609D02*
X135050479Y-80526371D01*
X135050479Y-80526371D02*
X134955241Y-80478752D01*
X134955241Y-80478752D02*
X134764765Y-80478752D01*
X134764765Y-80478752D02*
X134669527Y-80526371D01*
X134669527Y-80526371D02*
X134621908Y-80621609D01*
X134621908Y-80621609D02*
X134621908Y-80716847D01*
X134621908Y-80716847D02*
X135098098Y-80812085D01*
X134240955Y-81097800D02*
X134145717Y-81145419D01*
X134145717Y-81145419D02*
X133955241Y-81145419D01*
X133955241Y-81145419D02*
X133860003Y-81097800D01*
X133860003Y-81097800D02*
X133812384Y-81002561D01*
X133812384Y-81002561D02*
X133812384Y-80954942D01*
X133812384Y-80954942D02*
X133860003Y-80859704D01*
X133860003Y-80859704D02*
X133955241Y-80812085D01*
X133955241Y-80812085D02*
X134098098Y-80812085D01*
X134098098Y-80812085D02*
X134193336Y-80764466D01*
X134193336Y-80764466D02*
X134240955Y-80669228D01*
X134240955Y-80669228D02*
X134240955Y-80621609D01*
X134240955Y-80621609D02*
X134193336Y-80526371D01*
X134193336Y-80526371D02*
X134098098Y-80478752D01*
X134098098Y-80478752D02*
X133955241Y-80478752D01*
X133955241Y-80478752D02*
X133860003Y-80526371D01*
X133431431Y-81097800D02*
X133336193Y-81145419D01*
X133336193Y-81145419D02*
X133145717Y-81145419D01*
X133145717Y-81145419D02*
X133050479Y-81097800D01*
X133050479Y-81097800D02*
X133002860Y-81002561D01*
X133002860Y-81002561D02*
X133002860Y-80954942D01*
X133002860Y-80954942D02*
X133050479Y-80859704D01*
X133050479Y-80859704D02*
X133145717Y-80812085D01*
X133145717Y-80812085D02*
X133288574Y-80812085D01*
X133288574Y-80812085D02*
X133383812Y-80764466D01*
X133383812Y-80764466D02*
X133431431Y-80669228D01*
X133431431Y-80669228D02*
X133431431Y-80621609D01*
X133431431Y-80621609D02*
X133383812Y-80526371D01*
X133383812Y-80526371D02*
X133288574Y-80478752D01*
X133288574Y-80478752D02*
X133145717Y-80478752D01*
X133145717Y-80478752D02*
X133050479Y-80526371D01*
X132717145Y-80478752D02*
X132336193Y-80478752D01*
X132574288Y-80145419D02*
X132574288Y-81002561D01*
X132574288Y-81002561D02*
X132526669Y-81097800D01*
X132526669Y-81097800D02*
X132431431Y-81145419D01*
X132431431Y-81145419D02*
X132336193Y-81145419D01*
X131621907Y-81097800D02*
X131717145Y-81145419D01*
X131717145Y-81145419D02*
X131907621Y-81145419D01*
X131907621Y-81145419D02*
X132002859Y-81097800D01*
X132002859Y-81097800D02*
X132050478Y-81002561D01*
X132050478Y-81002561D02*
X132050478Y-80621609D01*
X132050478Y-80621609D02*
X132002859Y-80526371D01*
X132002859Y-80526371D02*
X131907621Y-80478752D01*
X131907621Y-80478752D02*
X131717145Y-80478752D01*
X131717145Y-80478752D02*
X131621907Y-80526371D01*
X131621907Y-80526371D02*
X131574288Y-80621609D01*
X131574288Y-80621609D02*
X131574288Y-80716847D01*
X131574288Y-80716847D02*
X132050478Y-80812085D01*
X130717145Y-81097800D02*
X130812383Y-81145419D01*
X130812383Y-81145419D02*
X131002859Y-81145419D01*
X131002859Y-81145419D02*
X131098097Y-81097800D01*
X131098097Y-81097800D02*
X131145716Y-81050180D01*
X131145716Y-81050180D02*
X131193335Y-80954942D01*
X131193335Y-80954942D02*
X131193335Y-80669228D01*
X131193335Y-80669228D02*
X131145716Y-80573990D01*
X131145716Y-80573990D02*
X131098097Y-80526371D01*
X131098097Y-80526371D02*
X131002859Y-80478752D01*
X131002859Y-80478752D02*
X130812383Y-80478752D01*
X130812383Y-80478752D02*
X130717145Y-80526371D01*
X130288573Y-81145419D02*
X130288573Y-80145419D01*
X129860002Y-81145419D02*
X129860002Y-80621609D01*
X129860002Y-80621609D02*
X129907621Y-80526371D01*
X129907621Y-80526371D02*
X130002859Y-80478752D01*
X130002859Y-80478752D02*
X130145716Y-80478752D01*
X130145716Y-80478752D02*
X130240954Y-80526371D01*
X130240954Y-80526371D02*
X130288573Y-80573990D01*
X128669525Y-80240657D02*
X128621906Y-80193038D01*
X128621906Y-80193038D02*
X128526668Y-80145419D01*
X128526668Y-80145419D02*
X128288573Y-80145419D01*
X128288573Y-80145419D02*
X128193335Y-80193038D01*
X128193335Y-80193038D02*
X128145716Y-80240657D01*
X128145716Y-80240657D02*
X128098097Y-80335895D01*
X128098097Y-80335895D02*
X128098097Y-80431133D01*
X128098097Y-80431133D02*
X128145716Y-80573990D01*
X128145716Y-80573990D02*
X128717144Y-81145419D01*
X128717144Y-81145419D02*
X128098097Y-81145419D01*
X127479049Y-80145419D02*
X127383811Y-80145419D01*
X127383811Y-80145419D02*
X127288573Y-80193038D01*
X127288573Y-80193038D02*
X127240954Y-80240657D01*
X127240954Y-80240657D02*
X127193335Y-80335895D01*
X127193335Y-80335895D02*
X127145716Y-80526371D01*
X127145716Y-80526371D02*
X127145716Y-80764466D01*
X127145716Y-80764466D02*
X127193335Y-80954942D01*
X127193335Y-80954942D02*
X127240954Y-81050180D01*
X127240954Y-81050180D02*
X127288573Y-81097800D01*
X127288573Y-81097800D02*
X127383811Y-81145419D01*
X127383811Y-81145419D02*
X127479049Y-81145419D01*
X127479049Y-81145419D02*
X127574287Y-81097800D01*
X127574287Y-81097800D02*
X127621906Y-81050180D01*
X127621906Y-81050180D02*
X127669525Y-80954942D01*
X127669525Y-80954942D02*
X127717144Y-80764466D01*
X127717144Y-80764466D02*
X127717144Y-80526371D01*
X127717144Y-80526371D02*
X127669525Y-80335895D01*
X127669525Y-80335895D02*
X127621906Y-80240657D01*
X127621906Y-80240657D02*
X127574287Y-80193038D01*
X127574287Y-80193038D02*
X127479049Y-80145419D01*
X126764763Y-80240657D02*
X126717144Y-80193038D01*
X126717144Y-80193038D02*
X126621906Y-80145419D01*
X126621906Y-80145419D02*
X126383811Y-80145419D01*
X126383811Y-80145419D02*
X126288573Y-80193038D01*
X126288573Y-80193038D02*
X126240954Y-80240657D01*
X126240954Y-80240657D02*
X126193335Y-80335895D01*
X126193335Y-80335895D02*
X126193335Y-80431133D01*
X126193335Y-80431133D02*
X126240954Y-80573990D01*
X126240954Y-80573990D02*
X126812382Y-81145419D01*
X126812382Y-81145419D02*
X126193335Y-81145419D01*
X125860001Y-80145419D02*
X125240954Y-80145419D01*
X125240954Y-80145419D02*
X125574287Y-80526371D01*
X125574287Y-80526371D02*
X125431430Y-80526371D01*
X125431430Y-80526371D02*
X125336192Y-80573990D01*
X125336192Y-80573990D02*
X125288573Y-80621609D01*
X125288573Y-80621609D02*
X125240954Y-80716847D01*
X125240954Y-80716847D02*
X125240954Y-80954942D01*
X125240954Y-80954942D02*
X125288573Y-81050180D01*
X125288573Y-81050180D02*
X125336192Y-81097800D01*
X125336192Y-81097800D02*
X125431430Y-81145419D01*
X125431430Y-81145419D02*
X125717144Y-81145419D01*
X125717144Y-81145419D02*
X125812382Y-81097800D01*
X125812382Y-81097800D02*
X125860001Y-81050180D01*
M02*
